<?xml version="1.0" encoding="utf-8"?>
<!-- Generator: Adobe Illustrator 24.1.2, SVG Export Plug-In . SVG Version: 6.00 Build 0)  -->
<svg version="1.1" id="Layer_1" xmlns="http://www.w3.org/2000/svg" xmlns:xlink="http://www.w3.org/1999/xlink" x="0px" y="0px"
	 viewBox="0 0 400 400" style="enable-background:new 0 0 400 400;" xml:space="preserve">
<style type="text/css">
	.st0{fill:#FFFFFF;}
</style>
<g id="logo">
	<path class="st0" d="M180.4,48.1c8.7,1.3,17.3,2.4,26,3.9c27.2,4.6,51.7,15.3,72.6,33.3c5.1,4.5,9.4,9.9,12.6,15.9
		c6.5,11.9,0.5,21.5-13,21.7c-16.1,0.2-31.1-5.2-46.1-10c-15.7-5.1-31.1-11.2-48-10.9c-13.8,0.2-19.3,5.7-19.7,19.4
		c-0.4,13,4.6,24.2,11.8,34.4c10,14.1,21,27.5,31.3,41.4c10.7,14.5,20.2,29.7,23.8,47.9c5.6,28-0.1,53.1-19.7,74.1
		c-8.7,9.3-18.5,17.6-27.9,26.4c-0.9,0.8-2.1,1.3-4.2,2.5c4.6-7.5,9.2-13.7,12.2-20.5c12-27.4,11.6-54.2-4.4-80.2
		c-9.6-15.6-22.2-28.6-34.2-42.2c-17.6-20.1-33.7-41.3-44.2-66.1c-2.3-5.4-3.9-11-4.8-16.7c-3.2-20.7,6.8-36.7,27.2-41.8
		c10.3-2.5,20.9-4,31.6-4.4c13.8-0.7,27.6,0,41.5,0c1.5,0.1,3-0.1,4.5-0.4c4.3-1.1,5.4-4,2-6.6c-7.1-5.4-14.7-10.2-22.2-15
		c-2.8-1.8-5.9-3.1-8.8-4.6L180.4,48.1z"/>
	<path class="st0" d="M234.9,304.8c2.4-5.5,4.4-9.6,6.2-13.8c10.1-23.7,13.9-48,5.6-73c-5.2-15.9-16.5-27.9-27.9-39.6
		c-8.6-8.8-16.6-18.1-24-28c-3.6-4.9-5.6-11.3-7-17.4c-2.2-9.1,4.1-16.5,13.4-18c12.4-1.9,21.2,4.7,29.2,12.3
		c20.6,19.6,34.2,43.3,39.1,71.5c3.1,17.5-0.7,34.5-4.9,51.3c-4.9,19.8-15.3,36.7-27.3,52.9C236.5,303.6,235.7,304.2,234.9,304.8z"
		/>
	<path class="st0" d="M280.6,211.8c0.1-3.6,0.4-7.2,0.9-10.8c3.1-16.3-2.2-30.5-11-43.7c-3.2-4.8-6.7-9.5-9.9-14.4
		c-0.9-1.4-2-2.9-2.1-4.4c-0.1-2.4-0.1-5.8,1.3-7.1s5.2-1.8,7.2-1c13.9,5.9,20.7,17.4,24.4,31.3c3.8,14.2-0.9,27.3-5.3,40.4
		c-1.1,3.4-2.5,6.7-3.8,10L280.6,211.8z"/>
</g>
</svg>
