<svg xmlns="http://www.w3.org/2000/svg" viewBox="0 0 400 400">
    <g id="logo" data-name="CapRover Logo" fill="#FFF">
        <path d="M181.45,48.14c8.66,1.29,17.34,2.44,26,3.9,27.16,4.6,51.67,15.28,72.61,33.27a57.81,57.81,0,0,1,12.58,15.91c6.52,11.9.48,21.52-13,21.7-16.14.21-31.1-5.16-46.14-10-15.68-5.06-31.08-11.15-48-10.86-13.79.24-19.32,5.74-19.7,19.41-.36,13,4.61,24.21,11.8,34.35,10,14.11,21,27.52,31.26,41.45,10.7,14.54,20.17,29.74,23.81,47.88,5.62,28-.09,53.07-19.72,74.13-8.72,9.34-18.54,17.65-27.9,26.37-.89.83-2.1,1.29-4.19,2.54,4.55-7.53,9.23-13.67,12.24-20.55,12-27.35,11.65-54.18-4.39-80.22-9.6-15.59-22.23-28.61-34.2-42.23-17.65-20.08-33.69-41.32-44.25-66.13a71,71,0,0,1-4.76-16.74c-3.24-20.68,6.84-36.67,27.19-41.82a160.88,160.88,0,0,1,31.55-4.36c13.79-.68,27.64,0,41.46,0a17.45,17.45,0,0,0,4.46-.41c4.34-1.13,5.44-4,2-6.63-7.08-5.42-14.69-10.18-22.19-15-2.77-1.79-5.86-3.09-8.8-4.61Z"/>
        <path d="M235.88,304.75c2.44-5.47,4.37-9.61,6.16-13.81,10.09-23.69,13.87-48,5.62-73-5.25-15.87-16.47-27.86-27.94-39.65a275,275,0,0,1-24-28c-3.61-4.88-5.55-11.33-7-17.37-2.21-9.14,4.12-16.54,13.37-18,12.44-1.9,21.25,4.67,29.25,12.28,20.61,19.58,34.16,43.3,39.09,71.48,3.06,17.48-.7,34.48-4.87,51.34-4.89,19.77-15.3,36.74-27.31,52.85A18.19,18.19,0,0,1,235.88,304.75Z"/>
        <path d="M281.56,211.75A106.1,106.1,0,0,1,282.5,201c3.09-16.32-2.16-30.49-11-43.74-3.24-4.83-6.67-9.53-9.91-14.35-.92-1.36-2.05-2.93-2.1-4.44-.07-2.44-.13-5.77,1.3-7.12s5.19-1.84,7.2-1c13.85,5.85,20.66,17.39,24.41,31.32,3.84,14.24-.91,27.27-5.27,40.39-1.12,3.38-2.54,6.66-3.82,10Z"/>
    </g>
</svg>
